<?xml version="1.0" encoding="utf-8"?>
<svg viewBox="132.733 162.653 262.143 87.645" xmlns="http://www.w3.org/2000/svg" width="300px" height="100px">
  <path d="M 139.709 239.004 L 133.037 205.836 L 137.021 205.836 L 142.589 235.644 L 143.933 235.644 L 150.653 206.076 L 155.165 206.076 L 161.885 235.644 L 163.229 235.644 L 168.797 205.836 L 172.781 205.836 L 166.061 239.004 L 159.149 239.004 L 152.573 209.148 L 153.245 209.148 L 146.669 239.004 Z M 184.729 239.484 Q 181.129 239.484 179.041 238.092 Q 176.953 236.7 176.041 233.964 Q 175.129 231.228 175.129 227.148 Q 175.129 222.588 176.377 219.828 Q 177.625 217.068 179.881 215.796 Q 182.137 214.524 185.209 214.524 Q 190.009 214.524 192.457 217.188 Q 194.905 219.852 194.905 225.756 L 194.713 228.588 L 178.921 228.588 Q 178.969 232.332 180.313 234.252 Q 181.657 236.172 185.161 236.172 Q 186.505 236.172 188.113 236.1 Q 189.721 236.028 191.305 235.932 Q 192.889 235.836 193.993 235.74 L 194.089 238.668 Q 192.937 238.86 191.281 239.052 Q 189.625 239.244 187.897 239.364 Q 186.169 239.484 184.729 239.484 Z M 178.921 225.564 L 191.161 225.564 Q 191.161 221.148 189.745 219.396 Q 188.329 217.644 185.209 217.644 Q 183.193 217.644 181.801 218.436 Q 180.409 219.228 179.665 220.956 Q 178.921 222.684 178.921 225.564 Z M 200.474 239.004 L 200.474 215.004 L 204.17 215.004 L 204.17 239.004 Z M 200.474 209.724 L 200.474 205.404 L 204.17 205.404 L 204.17 209.724 Z M 220.346 250.284 Q 216.602 250.284 214.322 249.636 Q 212.042 248.988 211.01 247.404 Q 209.978 245.82 209.978 243.084 Q 209.978 241.692 210.41 240.708 Q 210.842 239.724 211.682 238.884 Q 212.522 238.044 213.77 237.132 Q 213.146 236.652 212.786 235.764 Q 212.426 234.876 212.426 233.772 Q 212.426 233.436 212.69 232.764 Q 212.954 232.092 213.338 231.348 Q 213.722 230.604 214.058 229.98 Q 213.05 229.5 212.21 228.66 Q 211.37 227.82 210.842 226.38 Q 210.314 224.94 210.314 222.732 Q 210.314 219.756 211.442 217.956 Q 212.57 216.156 214.61 215.34 Q 216.65 214.524 219.29 214.524 Q 220.586 214.524 222.026 214.716 Q 223.466 214.908 224.282 215.148 L 231.434 214.956 L 231.434 218.124 L 226.922 218.028 Q 227.594 218.7 228.05 219.804 Q 228.506 220.908 228.506 222.732 Q 228.506 225.852 227.45 227.628 Q 226.394 229.404 224.33 230.124 Q 222.266 230.844 219.146 230.844 Q 218.81 230.844 218.018 230.772 Q 217.226 230.7 216.842 230.652 Q 216.554 231.324 216.266 232.188 Q 215.978 233.052 215.978 233.388 Q 215.978 234.108 216.146 234.516 Q 216.314 234.924 216.866 235.164 Q 217.418 235.404 218.57 235.476 Q 219.722 235.548 221.738 235.548 Q 225.194 235.548 227.258 236.124 Q 229.322 236.7 230.21 238.212 Q 231.098 239.724 231.098 242.604 Q 231.098 246.684 228.266 248.484 Q 225.434 250.284 220.346 250.284 Z M 220.394 247.116 Q 223.946 247.116 225.626 246.108 Q 227.306 245.1 227.306 242.796 Q 227.306 241.02 226.754 240.18 Q 226.202 239.34 224.906 239.076 Q 223.61 238.812 221.45 238.812 Q 221.018 238.812 220.25 238.788 Q 219.482 238.764 218.666 238.74 Q 217.85 238.716 217.202 238.668 Q 216.554 238.62 216.314 238.62 Q 215.354 239.34 214.754 239.94 Q 214.154 240.54 213.914 241.188 Q 213.674 241.836 213.674 242.748 Q 213.674 244.332 214.25 245.292 Q 214.826 246.252 216.29 246.684 Q 217.754 247.116 220.394 247.116 Z M 219.29 227.868 Q 222.266 227.868 223.514 226.692 Q 224.762 225.516 224.762 222.732 Q 224.762 219.948 223.514 218.748 Q 222.266 217.548 219.29 217.548 Q 216.506 217.548 215.282 218.748 Q 214.058 219.948 214.058 222.732 Q 214.058 225.516 215.282 226.692 Q 216.506 227.868 219.29 227.868 Z M 235.8 239.004 L 235.8 204.588 L 239.496 204.588 L 239.496 216.3 Q 240.36 215.916 241.584 215.508 Q 242.808 215.1 244.2 214.812 Q 245.592 214.524 246.84 214.524 Q 249.336 214.524 250.92 215.172 Q 252.504 215.82 253.392 217.236 Q 254.28 218.652 254.616 220.884 Q 254.952 223.116 254.952 226.284 L 254.952 239.004 L 251.208 239.004 L 251.208 226.428 Q 251.208 223.308 250.848 221.436 Q 250.488 219.564 249.432 218.724 Q 248.376 217.884 246.168 217.884 Q 244.968 217.884 243.696 218.1 Q 242.424 218.316 241.32 218.652 Q 240.216 218.988 239.496 219.276 L 239.496 239.004 Z M 269.351 239.532 Q 266.855 239.532 265.391 238.764 Q 263.927 237.996 263.303 236.1 Q 262.679 234.204 262.679 230.748 L 262.679 218.22 L 259.271 218.22 L 259.271 215.004 L 262.679 215.004 L 262.679 207.66 L 266.375 207.66 L 266.375 215.004 L 273.911 215.004 L 273.911 218.22 L 266.375 218.22 L 266.375 229.644 Q 266.375 232.188 266.591 233.604 Q 266.807 235.02 267.527 235.596 Q 268.247 236.172 269.783 236.172 Q 270.263 236.172 271.031 236.124 Q 271.799 236.076 272.591 236.004 Q 273.383 235.932 274.007 235.884 L 274.247 239.004 Q 273.575 239.1 272.663 239.22 Q 271.751 239.34 270.863 239.436 Q 269.975 239.532 269.351 239.532 Z M 282.984 239.004 L 276.312 205.836 L 280.296 205.836 L 285.864 235.644 L 287.208 235.644 L 293.928 206.076 L 298.44 206.076 L 305.16 235.644 L 306.504 235.644 L 312.072 205.836 L 316.056 205.836 L 309.336 239.004 L 302.424 239.004 L 295.848 209.148 L 296.52 209.148 L 289.944 239.004 Z M 320.951 239.004 L 320.951 215.004 L 324.647 215.004 L 324.647 239.004 Z M 320.951 209.724 L 320.951 205.404 L 324.647 205.404 L 324.647 209.724 Z M 331.56 239.004 L 331.56 215.004 L 335.256 215.004 L 335.256 216.684 Q 336.072 216.204 337.296 215.724 Q 338.52 215.244 339.912 214.884 Q 341.304 214.524 342.6 214.524 Q 345.096 214.524 346.68 215.172 Q 348.264 215.82 349.152 217.236 Q 350.04 218.652 350.4 220.884 Q 350.76 223.116 350.76 226.284 L 350.76 239.004 L 347.016 239.004 L 347.016 226.428 Q 347.016 223.308 346.656 221.436 Q 346.296 219.564 345.216 218.724 Q 344.136 217.884 341.928 217.884 Q 340.728 217.884 339.456 218.148 Q 338.184 218.412 337.08 218.82 Q 335.976 219.228 335.256 219.612 L 335.256 239.004 Z" style="fill: rgb(27, 154, 170);"/>
  <g transform="matrix(0.205128, 0, 0, 0.205128, 342.165166, 162.143099)" style="">
    <g transform="translate(-48.614 -5.4737)" fill-rule="evenodd">
      <path d="m56.633 380.71 52.658-0.50633-8.6076-24.81-5.0633-25.316 6.076-18.228-5.5696-17.722 26.835-2.0253 30.886-9.1139 19.24 26.835 20.76 15.696 24.81 10.633 49.114 14.177 3.5443 10.127-13.671 12.152 1.0127 6.5823 17.722 1.519 11.646-8.1013 17.215-13.165-12.658-18.734-13.671-3.5443-26.329-13.165-10.127-10.127-25.823-4.0506-12.658-26.835-8.6076-13.165-6.5823-19.747-8.1013-12.658-8.1013-4.0506-5.5696-16.203 5.0633-26.835 3.038-22.278 0.50633-15.696-5.5696-25.823 0.50633-14.177-6.5823-16.203-8.6076 13.165-3.5443 18.228-0.50633 24.304-3.5443-0.50633 1.519-31.392 5.5696-17.722h-14.177l-11.139 7.0886-2.5316 12.658-3.5443 15.19 4.557 9.1139 3.038 5.0633 7.0886-1.0126 2.0253 5.0633-13.671 5.5696-9.1139 10.127-1.519 13.165 1.0127 18.734 6.076 18.228 6.5823 15.696-1.519 9.1139-17.215 6.5823-17.215 9.1139-15.19 10.633-5.0633 3.5443-2.0253 19.24 3.5443 13.165 5.0633 26.835v25.823l-16.709 7.0886-8.1013 5.0633 1.519 7.5949z" stroke="#000"/>
      <path d="m126.16 111.28 3.7879-7.5758 4.5455-3.2828 6.8182-1.5152-1.5152-12.374 0.50505-13.131 1.0101-4.0404 6.8182-2.7778 0.50505-10.101-5.8081-5.0505-3.2828 1.0101-3.5354 3.7879-1.2626 4.2929-3.7879 2.0202-0.25252 5.303-1.2626 8.5859v6.3131l-1.0101 6.8182-2.7778 9.0909 0.50505 12.626z" stroke="#000"/>
      <path d="m168.08 100.93c-9.4917-24.647 1.9026-55.006 26.575-65.456 21.503-9.1445 52.25-5.4241 63.186 17.749 14.757 27.014 3.4029 66.698-27.086 76.777-22.687 7.9465-47.534-4.8071-59.232-24.807l-1.7084-2.1418-1.7342-2.1209z"/>
      <path d="m84.751 97.142c7.3265 3.9892 15.029 9.91 23.892 7.9867 4.3131-0.29009 9.0439 1.4022 13.02-0.86419 2.4761-3.9271 0.21385-9.3242 2.8559-13.633 1.8802-5.4139 3.4936-11.151 2.4289-16.919-0.40731-6.7726 1.772-13.735 6.3043-18.832 1.579-6.2828 10.362-10.325 15.382-5.3542 5.931 5.0823 5.1884 15.508-1.281 19.809-4.938 5.4416-2.5632 13.197-3.4032 19.773 0.66211 7.031 6.3273-0.75439 7.735-3.4854 9.6714-12.976 10.621-30.36 7.001-45.647-1.0078-6.2831-5.4134-11.206-8.9478-16.264-2.0446-3.1022-4.7126-5.6213-8.1159-7.169-9.8984-5.5338-21.455-7.8648-32.731-6.8286-6.5505-0.0192-13.617 0.17349-19.058 4.3442-6.4229 3.9012-11.511 9.663-14.97 16.291-6.7577 10.485-10.008 23.346-7.9546 35.737 0.48002 5.3146 2.8101 10.176 5.8512 14.472 3.4662 5.8824 7.2532 11.637 11.992 16.584z"/>
      <path d="m127.73 62.413 38.892 6.1308 5.1729-6.1308-45.406-6.3224-3.257 4.7897 6.1308 1.9159-1.5327-0.38318z" stroke="#000"/>
      <path transform="matrix(.17275 0 -.018845 .16751 217.77 50.435)" d="m36.962 151.65a41.013 41.772 0 1 1 -82.025 0 41.013 41.772 0 1 1 82.025 0z" fill="#fff"/>
      <path transform="matrix(.24851 0 -.02711 .24098 117.65 18.732)" d="m36.962 151.65a41.013 41.772 0 1 1 -82.025 0 41.013 41.772 0 1 1 82.025 0z" fill="#fff"/>
      <path transform="translate(48.614 5.4737)" d="m76 49.273-12.925-1.8193c-2.7565-0.388-4.0668 5.5583-1.6363 5.9064l12.657 1.8128 1.9045-5.8999z"/>
    </g>
  </g>
</svg>